<?xml version="1.0" encoding="utf-8"?>
<!-- Generator: Adobe Illustrator 26.0.1, SVG Export Plug-In . SVG Version: 6.00 Build 0)  -->
<svg version="1.1" id="Ebene_1" xmlns="http://www.w3.org/2000/svg" xmlns:xlink="http://www.w3.org/1999/xlink" x="0px" y="0px"
	 viewBox="0 0 25.5 25.3" style="enable-background:new 0 0 25.5 25.3;" xml:space="preserve">
<style type="text/css">
	.st0{fill:#00ab9f;}
</style>
<path class="st0" d="M15.7,25.2h-0.2c-1.1,0-2.2-0.6-3-1.4l-7.7-8.6l-2.3-2.6l9.9-11.2c1.6-1.7,4.3-1.8,6.1-0.1
	c1.6,1.5,1.8,4,0.4,5.7l-4.8,5.7c-0.4,0.5-1.1,0.5-1.6,0.1c-0.5-0.4-0.5-1.1-0.1-1.6l4.8-5.7c0.7-0.9,0.6-2.2-0.3-2.9
	c-0.8-0.7-2.1-0.6-2.8,0.2l-8.6,9.7l0.9,1.1l7.7,8.6c0.3,0.4,0.9,0.6,1.4,0.7c1.1,0,2.1-0.8,2.2-1.9c0-0.5-0.1-1-0.5-1.4L15,16.9
	c-0.4-0.5-0.3-1.2,0.1-1.6c0.5-0.4,1.2-0.3,1.6,0.1l2.3,2.7c1.5,1.8,1.3,4.5-0.5,6C17.7,24.9,16.7,25.2,15.7,25.2L15.7,25.2z"/>
</svg>