<?xml version="1.0" encoding="utf-8"?>
<!-- Generator: Adobe Illustrator 26.0.1, SVG Export Plug-In . SVG Version: 6.00 Build 0)  -->
<svg version="1.1" id="Ebene_1" xmlns="http://www.w3.org/2000/svg" xmlns:xlink="http://www.w3.org/1999/xlink" x="0px" y="0px"
	 viewBox="0 0 25.5 25.3" style="enable-background:new 0 0 25.5 25.3;" xml:space="preserve">
<style type="text/css">
	.st0{fill:#00ab9f;}
</style>
<path class="st0" d="M9.6,0.1h0.2c1.1,0,2.2,0.6,3,1.4l7.7,8.6l2.3,2.6l-9.9,11.2c-1.6,1.7-4.3,1.8-6.1,0.1c-1.6-1.5-1.8-4-0.4-5.7
	l4.8-5.7c0.4-0.5,1.1-0.5,1.6-0.1c0.5,0.4,0.5,1.1,0.1,1.6l-4.8,5.7c-0.7,0.9-0.6,2.2,0.3,2.9c0.8,0.7,2.1,0.6,2.8-0.2l8.6-9.7
	l-0.9-1.1L11.2,3c-0.3-0.4-0.9-0.6-1.4-0.7c-1.1,0-2.1,0.8-2.2,1.9c0,0.5,0.1,1,0.5,1.4l2.3,2.7c0.4,0.5,0.3,1.2-0.1,1.6
	C9.7,10.4,9,10.3,8.6,9.8L6.3,7.1C4.8,5.3,5,2.6,6.8,1.1C7.6,0.4,8.6,0.1,9.6,0.1L9.6,0.1z"/>
</svg>