<?xml version="1.0" encoding="utf-8"?>
<!-- Generator: Adobe Illustrator 16.0.0, SVG Export Plug-In . SVG Version: 6.00 Build 0)  -->
<!DOCTYPE svg PUBLIC "-//W3C//DTD SVG 1.1//EN" "http://www.w3.org/Graphics/SVG/1.1/DTD/svg11.dtd">
<svg version="1.1" id="Ebene_1" xmlns="http://www.w3.org/2000/svg" xmlns:xlink="http://www.w3.org/1999/xlink" x="0px" y="0px"
	 width="755.595px" height="256.225px" viewBox="0 0 755.595 256.225" enable-background="new 0 0 755.595 256.225"
	 xml:space="preserve">
<path fill="#FFFFFF" d="M755.595,172.067c0,46.481-37.678,84.157-84.162,84.157H84.163C37.681,256.225,0,218.549,0,172.067V84.163
	C0,37.682,37.681,0,84.163,0h587.27c46.484,0,84.162,37.682,84.162,84.163V172.067z"/>
<g>
	<polygon fill="#515151" points="290.523,53.28 278.508,108.832 266.037,53.28 246.422,53.28 267.849,128.897 288.143,128.897 
		309.456,53.28 	"/>
	<path fill="#515151" d="M364.329,99.987c0-16.778-8.728-29.476-26.527-29.476c-16.666,0-26.646,13.492-26.646,29.476
		c0,17.005,8.729,30.16,26.646,30.16C355.262,130.146,364.329,116.2,364.329,99.987z M329.186,99.987
		c0-5.554,1.021-17.346,8.62-17.346c7.936,0,8.503,11.564,8.503,17.346c0,5.556-0.909,17.913-8.503,17.913
		C330.206,117.899,329.186,105.998,329.186,99.987z"/>
	<path fill="#515151" d="M405.598,70.514c-7.708,0-12.473,4.306-15.646,11.11l-0.339-9.978h-15.646
		c0.227,4.082,0.341,7.937,0.341,12.017v45.235h17.231v-25.393c0-7.484,1.59-17.801,11.227-17.801c1.694,0,3.284,0.341,4.869,0.68
		l0.678-15.645C407.523,70.739,406.504,70.514,405.598,70.514z"/>
	<polygon fill="#515151" points="464.322,71.645 445.731,71.645 432.92,94.545 432.92,47.157 415.688,47.157 415.688,128.897 
		432.92,128.897 432.92,100.896 446.636,128.897 465.685,128.897 447.996,97.379 	"/>
	<path fill="#515151" d="M486.434,130.146c7.14,0,11.561-2.722,15.191-8.959l0.342,7.71h16.325c-0.115-3.4-0.454-6.916-0.454-12.584
		V91.26c0-12.7-5.442-20.746-22.787-20.746c-7.596,0-14.514,1.698-20.068,3.739l0.681,12.584c5.33-3.288,11.451-5.103,16.213-5.103
		c7.138,0,9.637,4.196,9.637,9.525v2.04h-3.97c-12.809,0-28.227,4.989-28.227,19.726
		C469.313,123.23,476.002,130.146,486.434,130.146z M499.584,102.028h1.929v3.401c0,6.01-1.814,13.491-8.956,13.491
		c-4.424,0-7.03-2.832-7.03-7.367C485.524,104.068,492.669,102.028,499.584,102.028z"/>
	<path fill="#515151" d="M545.388,87.404c0-3.175,3.626-4.763,6.686-4.763c5.219,0,8.623,1.135,13.722,3.175l0.678-12.924
		c-4.875-1.701-10.43-2.381-15.418-2.381c-9.974,0-22.79,4.874-22.79,17.231c0,18.027,23.924,17.574,23.924,25.168
		c0,3.514-3.629,4.989-6.462,4.989c-5.219,0-11.453-1.362-16.779-4.308l-1.139,13.38c6.011,2.155,13.377,3.175,20.065,3.175
		c11.565,0,21.43-6.234,21.43-18.593C569.306,93.979,545.388,96.021,545.388,87.404z"/>
	<path fill="#515151" d="M593.912,87.404c0-3.175,3.629-4.763,6.688-4.763c5.214,0,8.618,1.135,13.716,3.175L615,72.892
		c-4.877-1.701-10.435-2.381-15.421-2.381c-9.976,0-22.792,4.874-22.792,17.231c0,18.027,23.923,17.574,23.923,25.168
		c0,3.514-3.628,4.989-6.462,4.989c-5.215,0-11.45-1.362-16.778-4.308l-1.139,13.38c6.013,2.155,13.377,3.175,20.068,3.175
		c11.563,0,21.426-6.234,21.426-18.593C617.833,93.979,593.912,96.021,593.912,87.404z"/>
	<path fill="#515151" d="M649.35,70.514c-16.555,0-24.606,14.056-24.606,29.474c0,18.368,9.074,30.159,28.342,30.159
		c6.009,0,12.132-1.02,17.801-3.17l-0.681-12.248c-4.762,2.606-9.973,4.194-15.532,4.194c-8.954,0-13.266-6.802-13.266-14.512
		h31.855v-4.761C673.269,84.91,667.033,70.514,649.35,70.514z M641.413,95.564c0-5.781,1.929-14.284,8.275-14.284
		c6.574,0,7.938,8.163,7.938,14.284H641.413z"/>
	<path fill="#515151" d="M275.035,168.071c4.563-1.386,7.14-5.024,7.14-9.917c0-7.012-4.829-11.181-11.702-11.181h-10.783v44.122
		h9.855c8.07,0,13.693-3.507,13.693-12.17C283.236,173.499,280.392,169.065,275.035,168.071z M264.318,151.01h5.49
		c4.696,0,7.54,2.513,7.54,7.338c0,4.831-2.71,8.001-7.606,8.001h-5.423V151.01z M270.075,187.055h-5.759v-16.868h5.886
		c5.358,0,8.202,3.368,8.202,8.668C278.407,184.476,275.497,187.055,270.075,187.055z"/>
	<path fill="#515151" d="M311.013,168.336c0-6.681-3.178-10.85-10.653-10.85c-3.704,0-6.15,1.061-9.189,2.717l0.397,4.296
		c2.178-1.85,5.552-3.308,8.33-3.308c5.229,0,6.882,3.109,6.882,7.808v2.313h-2.116c-7.143,0-15.742,2.318-15.742,11.247
		c0,5.091,3.836,9.255,9.062,9.255c4.234,0,6.68-1.982,8.996-5.423l0.268,4.693h4.1c-0.197-2.313-0.33-4.627-0.33-7.14
		L311.013,168.336L311.013,168.336z M306.778,178.656c0,4.627-2.447,9.458-7.606,9.458c-3.44,0-5.821-2.318-5.821-5.692
		c0-6.94,6.681-7.802,12.369-7.802h1.062L306.778,178.656L306.778,178.656z"/>
	<path fill="#515151" d="M332.571,157.486c-3.969,0-6.878,2.513-8.331,5.428l-0.132-4.765h-3.971
		c0.065,3.308,0.197,6.482,0.197,9.789v23.146h4.3v-20.96c0-3.837,2.246-8.801,6.946-8.801c4.1,0,5.687,3.308,5.687,7.145v22.621
		h4.232v-22.688C341.499,162.583,339.186,157.486,332.571,157.486z"/>
	<polygon fill="#515151" points="371.391,158.154 366.299,158.154 355.189,171.71 355.189,143.401 350.889,143.401 350.889,191.085 
		355.189,191.085 355.189,173.825 367.357,191.085 372.519,191.085 359.022,172.698 	"/>
	<path fill="#515151" d="M398.577,158.154h-4.234v21.031c0,4.628-2.383,8.796-6.88,8.796c-4.5,0-5.626-3.439-5.626-7.277v-22.55
		h-4.295v22.616c0,6.223,2.575,11.049,8.996,11.049c3.898,0,6.482-2.313,8.202-5.356l0.133,4.633h3.967
		c-0.066-3.308-0.263-6.487-0.263-9.795V158.154L398.577,158.154z"/>
	<rect x="390.837" y="145.251" fill="#515151" width="3.9" height="5.692"/>
	<rect x="381.376" y="145.251" fill="#515151" width="3.972" height="5.692"/>
	<path fill="#515151" d="M420.264,157.486c-3.97,0-6.345,2.386-8.001,5.229v-19.314h-4.301v47.684h4.036l0.133-4.494
		c1.584,3.042,4.163,5.224,8.066,5.224c8.664,0,11.049-10.381,11.049-17.327C431.246,167.409,429.197,157.486,420.264,157.486z
		 M419.469,188.048c-6.549,0-7.404-8.199-7.404-13.561c0-5.295,1.188-13.229,7.404-13.229c6.35,0,7.145,8.598,7.145,13.229
		C426.613,179.048,425.62,188.048,419.469,188.048z"/>
	<path fill="#515151" d="M448.236,157.486c-8.396,0-11.51,9.133-11.51,17.001c0,8.796,2.91,17.327,12.9,17.327
		c2.579,0,5.952-0.663,8.267-1.851l-0.397-4.429c-1.982,1.458-4.893,2.579-7.407,2.579c-7.013,0-8.862-6.614-8.862-12.368h17.729
		v-1.921C458.953,166.746,456.904,157.486,448.236,157.486z M441.227,172.372c0-4.499,1.987-11.247,7.01-11.247
		c5.159,0,6.283,7.079,6.283,11.247H441.227z"/>
	<path fill="#515151" d="M470.129,163.179l-0.133-5.024h-3.973c0.066,3.308,0.199,6.478,0.199,9.784v23.157h4.299v-19.783
		c0-4.163,2.244-9.458,7.012-9.458c0.396,0,0.856,0.127,1.256,0.127l0.398-4.229c-0.398-0.066-0.928-0.266-1.392-0.266
		C474.295,157.486,471.515,160.065,470.129,163.179z"/>
	<polygon fill="#515151" points="510.141,186.723 503.658,158.154 498.567,158.154 492.083,186.723 485.669,158.154 
		480.974,158.154 489.371,191.085 494.531,191.085 501.014,163.245 507.36,191.085 512.521,191.085 520.924,158.154 
		516.623,158.154 	"/>
	<path fill="#515151" d="M535.998,157.486c-8.401,0-11.51,9.133-11.51,17.001c0,8.796,2.91,17.327,12.898,17.327
		c2.581,0,5.949-0.663,8.269-1.851l-0.397-4.429c-1.985,1.458-4.896,2.579-7.407,2.579c-7.013,0-8.862-6.614-8.862-12.368h17.725
		v-1.921C546.713,166.746,544.664,157.486,535.998,157.486z M528.988,172.372c0-4.499,1.982-11.247,7.01-11.247
		c5.16,0,6.283,7.079,6.283,11.247H528.988z"/>
	<rect x="553.987" y="145.251" fill="#515151" width="4.364" height="5.692"/>
	<rect x="553.987" y="158.154" fill="#515151" width="4.296" height="32.941"/>
	<path fill="#515151" d="M570.188,166.155c0-2.977,2.782-4.897,5.558-4.897c2.048,0,3.9,0.662,5.819,1.458l0.395-4.103
		c-2.048-0.663-4.296-1.127-6.35-1.127c-4.958,0-9.985,3.181-9.985,9c0,10.188,13.563,8.796,13.563,16.333
		c0,3.042-2.977,5.229-5.754,5.229c-2.716,0-5.297-0.922-7.677-2.247l-0.397,4.5c2.843,1.06,5.49,1.523,8.53,1.523
		c5.761,0,9.795-3.639,9.795-9.458C583.68,172.24,570.188,173.891,570.188,166.155z"/>
	<path fill="#515151" d="M611.458,158.154h-4.232v20.965c0,3.833-2.247,8.862-6.943,8.862c-4.103,0-5.558-3.373-5.558-7.211v-22.616
		h-4.298v22.616c0,5.82,2.318,11.049,8.934,11.049c3.97,0,6.808-2.513,8.266-5.423l0.132,4.699h3.971
		c-0.066-3.308-0.266-6.487-0.266-9.795L611.458,158.154L611.458,158.154z"/>
	<path fill="#515151" d="M633.083,157.486c-3.97,0-6.88,2.513-8.335,5.428l-0.127-4.765h-3.975c0.066,3.308,0.201,6.482,0.201,9.789
		v23.146h4.293v-20.96c0-3.837,2.25-8.801,6.949-8.801c4.102,0,5.689,3.308,5.689,7.145v22.621h4.229v-22.688
		C642.009,162.583,639.695,157.486,633.083,157.486z"/>
	<path fill="#515151" d="M668.664,162.716c-1.588-2.977-4.034-5.229-8.136-5.229c-8.729,0-11.051,9.923-11.051,17.001
		c0,7.476,2.321,16.598,11.051,16.598c3.704,0,6.28-1.978,7.935-4.892v1.85c0,6.023-0.13,14.218-8.269,14.218
		c-3.111,0-6.151-0.988-8.793-2.507l-0.397,4.494c3.11,0.989,6.084,1.784,9.392,1.784c9.392,0,12.368-7.477,12.368-15.94v-31.938
		h-4.1V162.716z M661.124,187.319c-6.283,0-7.01-8.001-7.01-12.832c0-4.632,0.793-13.229,7.143-13.229
		c6.217,0,7.341,7.935,7.341,13.229C668.598,179.645,667.938,187.319,661.124,187.319z"/>
</g>
<path fill="#F39200" d="M207.034,88.695c-5.174-2.276-11.379-2.69-16.967-2.69c-10.757,0-21.93,4.135-27.518,14.067h38.276
	l-7.449,15.726h-37.655c-1.242,3.724-2.897,7.651-3.519,11.587h35.586l-7.445,15.727h-28.552
	c0.828,11.792,12.004,14.273,21.725,14.273c7.449,0,14.276-1.651,21.312-3.725l-2.897,35.591
	c-9.518,2.277-19.448,3.511-29.172,3.511c-32.896,0-62.484-10.753-62.484-49.65H81.443l7.445-15.727h12.625
	c0.622-3.936,1.655-7.864,2.893-11.587H87.854l7.447-15.726h14.278c13.453-33.929,44.073-49.657,79.662-49.657
	c9.519,0,23.583,2.278,32.277,6.002L207.034,88.695z"/>
</svg>
